<svg width="60" height="72" viewBox="0 0 60 72" fill="none" xmlns="http://www.w3.org/2000/svg">
<path d="M11.25 19C11.25 8.64466 19.6447 0.25 30 0.25C40.3553 0.25 48.75 8.64466 48.75 19C48.75 29.3553 40.3553 37.75 30 37.75C19.6447 37.75 11.25 29.3553 11.25 19ZM30 30.25C36.2132 30.25 41.25 25.2132 41.25 19C41.25 12.7868 36.2132 7.75 30 7.75C23.7868 7.75 18.75 12.7868 18.75 19C18.75 25.2132 23.7868 30.25 30 30.25Z" fill="black" fill-opacity="0.1"/>
<path d="M8.7868 50.2868C3.16071 55.9129 0 63.5435 0 71.5H7.5C7.5 65.5326 9.87053 59.8097 14.0901 55.5901C18.3097 51.3705 24.0326 49 30 49C35.9674 49 41.6903 51.3705 45.9099 55.5901C50.1295 59.8097 52.5 65.5326 52.5 71.5H60C60 63.5435 56.8393 55.9129 51.2132 50.2868C45.5871 44.6607 37.9565 41.5 30 41.5C22.0435 41.5 14.4129 44.6607 8.7868 50.2868Z" fill="black" fill-opacity="0.1"/>
</svg>
