<svg width="22" height="18" viewBox="0 0 22 18" fill="none" xmlns="http://www.w3.org/2000/svg">
<path d="M21.5666 3.71446C21.0892 4.70158 18.9904 9.46438 18.7044 9.90502C18.6714 9.95686 18.6406 10.0087 18.612 10.0584C18.3326 10.5271 18.0378 10.8878 17.0214 10.8878H7.32162C7.52402 11.4948 7.94862 12.2421 8.82862 12.2421H17.2238C17.4724 12.2421 17.6726 12.4409 17.6726 12.6828C17.6726 12.9269 17.4724 13.1234 17.2238 13.1234H8.82862C7.58342 13.1234 6.67262 12.1665 6.33382 10.6977C6.14682 9.88774 3.87423 2.42278 3.71143 1.83741C3.53763 1.46589 3.13063 1.19805 2.73683 1.19805H0.668834C0.420232 1.19805 0.220032 0.99933 0.220032 0.757409C0.220032 0.515492 0.422432 0.316772 0.668834 0.316772H2.73683C3.50683 0.316772 4.23503 0.357812 4.54963 1.07494C4.55843 1.09438 4.56503 1.11381 4.56943 1.13326C4.65963 1.45294 6.54282 8.01286 7.07962 10.0044H17.0192C17.6022 10.0044 17.6594 9.90502 17.8332 9.61342C17.8684 9.5551 17.9036 9.49462 17.9454 9.43198C18.2116 9.02158 20.2972 4.28686 20.7416 3.3667C20.9264 2.8915 20.8934 2.6323 20.8428 2.55886C20.8098 2.51134 20.702 2.48326 20.5546 2.48326C19.5822 2.49838 7.23582 2.48326 6.80682 2.48326C6.55822 2.48326 6.35802 2.28454 6.35802 2.04046C6.35802 1.79638 6.55822 1.59981 6.80682 1.59981C6.91242 1.59981 19.5734 1.61493 20.5458 1.59981C21.1376 1.59981 21.4346 1.84822 21.582 2.05774C21.8504 2.44222 21.846 2.9995 21.5666 3.71446ZM8.58882 13.5597C9.74602 13.5597 10.6898 14.4842 10.6898 15.6225C10.6898 16.7609 9.74822 17.6832 8.58882 17.6832C7.43162 17.6832 6.49002 16.7587 6.49002 15.6204C6.49002 14.4821 7.43162 13.5597 8.58882 13.5597ZM8.58882 16.8365C9.27082 16.8365 9.82522 16.2921 9.82522 15.6225C9.82522 14.9529 9.27082 14.4086 8.58882 14.4086C7.90682 14.4086 7.35242 14.9529 7.35242 15.6225C7.35462 16.2921 7.90902 16.8365 8.58882 16.8365Z" fill="black"/>
<path d="M17.1314 13.5598C18.2886 13.5598 19.2324 14.4843 19.2324 15.6226C19.2324 16.7609 18.2908 17.6833 17.1314 17.6833C15.972 17.6833 15.0326 16.7588 15.0326 15.6205C15.0326 14.4821 15.9742 13.5598 17.1314 13.5598ZM17.1314 16.8365C17.8134 16.8365 18.3678 16.2922 18.3678 15.6226C18.3678 14.953 17.8134 14.4087 17.1314 14.4087C16.4494 14.4087 15.895 14.953 15.895 15.6226C15.895 16.2922 16.4516 16.8365 17.1314 16.8365Z" fill="black"/>
</svg>
